<?xml version="1.0" standalone="no"?>
<!DOCTYPE svg PUBLIC "-//W3C//DTD SVG 20010904//EN"
 "http://www.w3.org/TR/2001/REC-SVG-20010904/DTD/svg10.dtd">
<svg version="1.0" xmlns="http://www.w3.org/2000/svg"
 width="32pt" height="32pt" viewBox="0 0 500.000000 500.000000"
 preserveAspectRatio="xMidYMid meet">

<g transform="translate(0.000000,500.000000) scale(0.100000,-0.100000)"
fill="#C40000" stroke="none">
<path d="M1725 4474 c-283 -34 -419 -82 -628 -222 -244 -162 -422 -402 -515
-693 -35 -110 -67 -314 -55 -359 5 -20 14 -20 557 -21 303 0 571 -4 596 -8
l45 -7 -40 -12 c-22 -7 -47 -12 -56 -12 -21 0 -190 -44 -244 -63 -245 -87
-493 -282 -638 -501 -172 -258 -251 -573 -218 -866 37 -319 158 -571 385 -795
174 -173 332 -266 561 -330 120 -33 143 -37 305 -42 207 -6 316 8 480 63 467
156 825 586 880 1058 10 84 25 117 34 75 3 -13 12 -69 21 -124 75 -463 453
-895 890 -1018 155 -43 197 -51 295 -51 l95 -1 0 1385 c0 1534 3 1453 -65
1656 -32 95 -103 240 -153 314 -192 284 -502 491 -834 557 -79 15 -173 17
-878 19 -434 1 -803 0 -820 -2z m1443 -1971 l-3 -668 -655 -2 c-360 -2 -660 1
-666 5 -7 4 -13 16 -14 27 -1 11 -2 309 -1 663 l1 642 670 0 670 0 -2 -667z"/>
</g>
</svg>
